<?xml version="1.0" standalone="no"?>
<!DOCTYPE svg PUBLIC "-//W3C//DTD SVG 1.1//EN" "http://www.w3.org/Graphics/SVG/1.1/DTD/svg11.dtd" >
<svg xmlns="http://www.w3.org/2000/svg">
<metadata></metadata>
<defs>
<font id="8bitoperatorregular" horiz-adv-x="1536" >
<font-face units-per-em="2048" ascent="1638" descent="-410" />
<missing-glyph horiz-adv-x="1152" />
<glyph horiz-adv-x="2048" />
<glyph horiz-adv-x="2048" />
<glyph unicode="&#xd;" horiz-adv-x="2048" />
<glyph unicode=" "  horiz-adv-x="1152" />
<glyph unicode="&#x09;" horiz-adv-x="1152" />
<glyph unicode="&#xa0;" horiz-adv-x="1152" />
<glyph unicode="!" horiz-adv-x="768" d="M192 0v384h384v-384h-384zM192 576v1152h384v-1152h-384z" />
<glyph unicode="&#x22;" horiz-adv-x="1344" d="M192 960v192h192v-192h-192zM192 1344v384h384v-576h-192v192h-192zM768 960v192h192v-192h-192zM768 1344v384h384v-576h-192v192h-192z" />
<glyph unicode="#" horiz-adv-x="1920" d="M192 384v192h192v576h-192v192h192v384h384v-384h384v384h384v-384h192v-192h-192v-576h192v-192h-192v-384h-384v384h-384v-384h-384v384h-192zM768 576h384v576h-384v-576z" />
<glyph unicode="$" d="M192 192v384h384v-384h384v384h-192v192h-192v192h-192v192h-192v384h192v192h192v384h384v-384h192v-192h192v-384h-384v384h-384v-384h192v-192h192v-192h192v-192h192v-384h-192v-192h-192v-384h-384v384h-192v192h-192z" />
<glyph unicode="%" horiz-adv-x="1728" d="M192 0v384h192v192h192v192h192v192h192v192h192v192h192v192h192v-384h-192v-192h-192v-192h-192v-192h-192v-192h-192v-192h-192v-192h-192zM192 1152v384h384v-384h-384zM1152 0v384h384v-384h-384z" />
<glyph unicode="&#x26;" horiz-adv-x="1728" d="M192 192v576h192v192h192v192h-192v384h192v192h576v-192h192v-384h-192v-192h-192v-192h576v-192h-192v-384h192v-192h-384v192h-192v384h-192v192h-192v-576h384v-192h-576v192h-192zM768 1152h192v384h-192v-384z" />
<glyph unicode="'" horiz-adv-x="768" d="M192 960v192h192v-192h-192zM192 1344v384h384v-576h-192v192h-192z" />
<glyph unicode="(" horiz-adv-x="1152" d="M192 384v960h192v192h192v192h384v-192h-192v-192h-192v-960h192v-192h192v-192h-384v192h-192v192h-192z" />
<glyph unicode=")" horiz-adv-x="1152" d="M192 0v192h192v192h192v960h-192v192h-192v192h384v-192h192v-192h192v-960h-192v-192h-192v-192h-384z" />
<glyph unicode="*" horiz-adv-x="1728" d="M192 768v192h384v192h-192v192h384v-192h192v192h384v-192h-192v-192h384v-192h-384v-192h192v-192h-384v192h-192v-192h-384v192h192v192h-384z" />
<glyph unicode="+" d="M192 768v192h384v384h384v-384h384v-192h-384v-384h-384v384h-384z" />
<glyph unicode="," horiz-adv-x="768" d="M192 0v384h384v-576h-192v192h-192zM192 -192h192v-192h-192v192z" />
<glyph unicode="-" horiz-adv-x="1344" d="M192 768v192h960v-192h-960z" />
<glyph unicode="." horiz-adv-x="768" d="M192 0v384h384v-384h-384z" />
<glyph unicode="/" d="M192 -192v384h192v384h192v384h192v384h192v384h384v-384h-192v-384h-192v-384h-192v-384h-192v-384h-384z" />
<glyph unicode="0" d="M192 192v1344h192v192h768v-192h192v-1344h-192v-192h-768v192h-192zM576 192h384v576h-192v-192h-192v-384zM576 960h192v192h192v384h-384v-576z" />
<glyph unicode="1" horiz-adv-x="1152" d="M192 0v192h192v1152h-192v192h192v192h384v-1536h192v-192h-768z" />
<glyph unicode="2" d="M192 0v384h192v192h192v192h192v192h192v576h-384v-384h-384v384h192v192h768v-192h192v-576h-192v-192h-192v-192h-192v-192h-192v-192h768v-192h-1152z" />
<glyph unicode="3" d="M192 192v384h384v-384h384v576h-384v192h384v576h-384v-384h-384v384h192v192h768v-192h192v-576h-192v-192h192v-576h-192v-192h-768v192h-192z" />
<glyph unicode="4" d="M192 384v576h192v192h192v192h192v192h192v192h384v-1728h-384v384h-768zM576 576h384v576h-192v-192h-192v-384z" />
<glyph unicode="5" d="M192 192v384h384v-384h384v768h-768v768h1152v-192h-768v-384h576v-192h192v-768h-192v-192h-768v192h-192z" />
<glyph unicode="6" d="M192 192v1344h192v192h768v-192h192v-384h-384v384h-384v-576h576v-192h192v-576h-192v-192h-768v192h-192zM576 192h384v576h-384v-576z" />
<glyph unicode="7" d="M192 1536v192h1152v-576h-192v-384h-192v-768h-384v768h192v384h192v384h-768z" />
<glyph unicode="8" d="M192 192v576h192v192h-192v576h192v192h768v-192h192v-576h-192v-192h192v-576h-192v-192h-768v192h-192zM576 192h384v576h-384v-576zM576 960h384v576h-384v-576z" />
<glyph unicode="9" d="M192 192v384h384v-384h384v576h-576v192h-192v576h192v192h768v-192h192v-1344h-192v-192h-768v192h-192zM576 960h384v576h-384v-576z" />
<glyph unicode=":" horiz-adv-x="768" d="M192 0v384h384v-384h-384zM192 960v384h384v-384h-384z" />
<glyph unicode=";" horiz-adv-x="768" d="M192 0v384h384v-576h-192v192h-192zM192 -192h192v-192h-192v192zM192 960v384h384v-384h-384z" />
<glyph unicode="&#x3c;" horiz-adv-x="1344" d="M192 768v192h192v192h192v192h192v192h192v192h192v-384h-192v-192h-192v-192h-192v-192h192v-192h192v-192h192v-384h-192v192h-192v192h-192v192h-192v192h-192z" />
<glyph unicode="=" horiz-adv-x="1344" d="M192 576v192h960v-192h-960zM192 960v192h960v-192h-960z" />
<glyph unicode="&#x3e;" horiz-adv-x="1344" d="M192 0v384h192v192h192v192h192v192h-192v192h-192v192h-192v384h192v-192h192v-192h192v-192h192v-192h192v-192h-192v-192h-192v-192h-192v-192h-192v-192h-192z" />
<glyph unicode="?" d="M192 1152v384h192v192h768v-192h192v-576h-192v-192h-192v-192h-384v192h192v192h192v576h-384v-384h-384zM576 0v384h384v-384h-384z" />
<glyph unicode="@" horiz-adv-x="1920" d="M192 192v1344h192v192h1152v-192h192v-1152h-768v192h-192v576h192v192h384v192h-768v-1344h960v-192h-1152v192h-192zM1152 576h192v576h-192v-576z" />
<glyph unicode="A" d="M192 0v1536h192v192h768v-192h192v-1536h-384v576h-384v-576h-384zM576 768h384v768h-384v-768z" />
<glyph unicode="B" d="M192 0v1728h960v-192h192v-576h-192v-192h192v-576h-192v-192h-960zM576 192h384v576h-384v-576zM576 960h384v576h-384v-576z" />
<glyph unicode="C" d="M192 192v1344h192v192h768v-192h192v-384h-384v384h-384v-1344h384v384h384v-384h-192v-192h-768v192h-192z" />
<glyph unicode="D" d="M192 0v1728h960v-192h192v-1344h-192v-192h-960zM576 192h384v1344h-384v-1344z" />
<glyph unicode="E" d="M192 0v1728h1152v-192h-768v-576h576v-192h-576v-576h768v-192h-1152z" />
<glyph unicode="F" d="M192 0v1728h1152v-192h-768v-576h576v-192h-576v-768h-384z" />
<glyph unicode="G" d="M192 192v1344h192v192h768v-192h192v-384h-384v384h-384v-1344h384v576h-192v192h576v-768h-192v-192h-768v192h-192z" />
<glyph unicode="H" d="M192 0v1728h384v-768h384v768h384v-1728h-384v768h-384v-768h-384z" />
<glyph unicode="I" horiz-adv-x="1152" d="M192 0v192h192v1344h-192v192h768v-192h-192v-1344h192v-192h-768z" />
<glyph unicode="J" d="M192 192v384h384v-384h384v1344h-192v192h576v-1536h-192v-192h-768v192h-192z" />
<glyph unicode="K" d="M192 0v1728h384v-768h192v192h192v576h384v-576h-192v-192h-192v-192h192v-192h192v-576h-384v576h-192v192h-192v-768h-384z" />
<glyph unicode="L" d="M192 0v1728h384v-1536h768v-192h-1152z" />
<glyph unicode="M" horiz-adv-x="1728" d="M192 0v1728h192v-192h192v-192h192v-192h192v192h192v192h192v192h192v-1728h-384v960h-192v-192h-192v192h-192v-960h-384z" />
<glyph unicode="N" d="M192 0v1728h384v-384h192v-192h192v576h384v-1728h-384v768h-192v192h-192v-960h-384z" />
<glyph unicode="O" d="M192 192v1344h192v192h768v-192h192v-1344h-192v-192h-768v192h-192zM576 192h384v1344h-384v-1344z" />
<glyph unicode="P" d="M192 0v1728h960v-192h192v-576h-192v-192h-576v-768h-384zM576 960h384v576h-384v-576z" />
<glyph unicode="Q" d="M192 192v1344h192v192h768v-192h192v-1344h-192v-384h192v-192h-384v192h-192v192h-384v192h-192zM576 192h384v1344h-384v-1344z" />
<glyph unicode="R" d="M192 0v1728h960v-192h192v-576h-192v-192h192v-768h-384v768h-384v-768h-384zM576 960h384v576h-384v-576z" />
<glyph unicode="S" d="M192 192v384h384v-384h384v384h-192v192h-192v192h-192v192h-192v384h192v192h768v-192h192v-384h-384v384h-384v-384h192v-192h192v-192h192v-192h192v-384h-192v-192h-768v192h-192z" />
<glyph unicode="T" d="M192 1536v192h1152v-192h-384v-1536h-384v1536h-384z" />
<glyph unicode="U" d="M192 192v1536h384v-1536h384v1536h384v-1536h-192v-192h-768v192h-192z" />
<glyph unicode="V" d="M192 384v1344h384v-1344h384v1344h384v-1344h-192v-192h-192v-192h-384v192h-192v192h-192z" />
<glyph unicode="W" horiz-adv-x="1728" d="M192 384v1344h384v-1344h192v-384h-384v384h-192zM768 384v960h192v-960h-192zM960 0v384h192v1344h384v-1344h-192v-384h-384z" />
<glyph unicode="X" d="M192 0v576h192v192h192v192h-192v192h-192v576h384v-576h384v576h384v-576h-192v-192h-192v-192h192v-192h192v-576h-384v576h-384v-576h-384z" />
<glyph unicode="Y" d="M192 960v768h384v-768h384v768h384v-768h-192v-192h-192v-768h-384v768h-192v192h-192z" />
<glyph unicode="Z" d="M192 0v576h192v192h192v192h192v192h192v384h-768v192h1152v-576h-192v-192h-192v-192h-192v-192h-192v-384h768v-192h-1152z" />
<glyph unicode="[" horiz-adv-x="1152" d="M192 0v1728h768v-192h-384v-1344h384v-192h-768z" />
<glyph unicode="\" d="M192 1344v384h384v-384h192v-384h192v-384h192v-384h192v-384h-384v384h-192v384h-192v384h-192v384h-192z" />
<glyph unicode="]" horiz-adv-x="1152" d="M192 0v192h384v1344h-384v192h768v-1728h-768z" />
<glyph unicode="^" horiz-adv-x="1728" d="M192 1152v192h192v192h192v192h192v192h192v-192h192v-192h192v-192h192v-192h-384v192h-192v192h-192v-192h-192v-192h-384z" />
<glyph unicode="_" horiz-adv-x="960" d="M0 -192h960v-192h-960v192z" />
<glyph unicode="`" horiz-adv-x="960" d="M192 1728v192h384v-192h192v-192h-384v192h-192z" />
<glyph unicode="a" d="M192 192v384h192v192h576v384h-384v-192h-384v192h192v192h768v-192h192v-1152h-960v192h-192zM576 192h384v384h-384v-384z" />
<glyph unicode="b" d="M192 0v1728h384v-384h576v-192h192v-960h-192v-192h-960zM576 192h384v960h-384v-960z" />
<glyph unicode="c" d="M192 192v960h192v192h768v-192h192v-384h-384v384h-384v-960h384v384h384v-384h-192v-192h-768v192h-192z" />
<glyph unicode="d" d="M192 192v960h192v192h576v384h384v-1728h-960v192h-192zM576 192h384v960h-384v-960z" />
<glyph unicode="e" d="M192 192v960h192v192h768v-192h192v-576h-768v-384h384v192h384v-192h-192v-192h-768v192h-192zM576 768h384v384h-384v-384z" />
<glyph unicode="f" horiz-adv-x="1344" d="M192 960v192h192v384h192v192h576v-192h-384v-384h384v-192h-384v-960h-384v960h-192z" />
<glyph unicode="g" d="M192 -192v384h192v192h-192v192h192v192h-192v384h192v192h1152v-192h-192v-384h-192v-192h-576v-192h576v-192h192v-384h-192v-192h-768v192h-192zM576 192v-384h384v384h-384zM576 768h384v384h-384v-384z" />
<glyph unicode="h" d="M192 0v1728h384v-384h576v-192h192v-1152h-384v1152h-384v-1152h-384z" />
<glyph unicode="i" horiz-adv-x="1152" d="M192 0v192h192v960h-192v192h576v-1152h192v-192h-768zM384 1536v384h384v-384h-384z" />
<glyph unicode="j" d="M192 0h384v-192h384v1344h-192v192h576v-1536h-192v-192h-768v192h-192v192zM960 1536v384h384v-384h-384z" />
<glyph unicode="k" d="M192 0v1728h384v-960h192v192h192v384h384v-384h-192v-192h-192v-192h192v-192h192v-384h-384v384h-192v192h-192v-576h-384z" />
<glyph unicode="l" horiz-adv-x="1152" d="M192 0v192h192v1344h-192v192h576v-1536h192v-192h-768z" />
<glyph unicode="m" horiz-adv-x="1920" d="M192 0v1344h768v-192h192v-1152h-384v1152h-192v-1152h-384zM1152 1152v192h384v-192h192v-1152h-384v1152h-192z" />
<glyph unicode="n" d="M192 0v1344h960v-192h192v-1152h-384v1152h-384v-1152h-384z" />
<glyph unicode="o" d="M192 192v960h192v192h768v-192h192v-960h-192v-192h-768v192h-192zM576 192h384v960h-384v-960z" />
<glyph unicode="p" d="M192 -384v1728h960v-192h192v-960h-192v-192h-576v-384h-384zM576 192h384v960h-384v-960z" />
<glyph unicode="q" d="M192 192v960h192v192h960v-1728h-384v384h-576v192h-192zM576 192h384v960h-384v-960z" />
<glyph unicode="r" d="M192 0v1344h960v-192h192v-384h-384v384h-384v-1152h-384z" />
<glyph unicode="s" d="M192 192v192h384v-192h384v384h-576v192h-192v384h192v192h768v-192h192v-192h-384v192h-384v-384h576v-192h192v-384h-192v-192h-768v192h-192z" />
<glyph unicode="t" horiz-adv-x="1344" d="M192 1152v192h192v384h384v-384h384v-192h-384v-960h384v-192h-576v192h-192v960h-192z" />
<glyph unicode="u" d="M192 192v1152h384v-1152h384v1152h384v-1344h-960v192h-192z" />
<glyph unicode="v" d="M192 384v960h384v-960h384v960h384v-960h-192v-192h-192v-192h-384v192h-192v192h-192z" />
<glyph unicode="w" horiz-adv-x="1728" d="M192 384v960h384v-960h192v-384h-384v384h-192zM768 384v768h192v-768h-192zM960 0v384h192v960h384v-960h-192v-384h-384z" />
<glyph unicode="x" d="M192 0v384h192v192h192v192h-192v192h-192v384h384v-384h384v384h384v-384h-192v-192h-192v-192h192v-192h192v-384h-384v384h-384v-384h-384z" />
<glyph unicode="y" d="M192 0h384v-192h384v384h-576v192h-192v960h384v-960h384v960h384v-1536h-192v-192h-768v192h-192v192z" />
<glyph unicode="z" d="M192 0v384h192v192h192v192h192v192h192v192h-768v192h1152v-384h-192v-192h-192v-192h-192v-192h-192v-192h768v-192h-1152z" />
<glyph unicode="{" d="M192 768v192h384v576h192v192h576v-192h-384v-576h-192v-192h192v-576h384v-192h-576v192h-192v576h-384z" />
<glyph unicode="|" horiz-adv-x="768" d="M192 0v1728h384v-1728h-384z" />
<glyph unicode="}" d="M192 0v192h384v576h192v192h-192v576h-384v192h576v-192h192v-576h384v-192h-384v-576h-192v-192h-576z" />
<glyph unicode="~" horiz-adv-x="1728" d="M192 768v192h192v192h576v-192h192v192h384v-192h-192v-192h-576v192h-192v-192h-384z" />
<glyph unicode="&#xa1;" horiz-adv-x="768" d="M192 -384v1152h384v-1152h-384zM192 960v384h384v-384h-384z" />
<glyph unicode="&#xa2;" d="M192 576v576h192v192h192v384h384v-384h192v-192h192v-192h-384v192h-384v-576h384v192h384v-192h-192v-192h-192v-384h-384v384h-192v192h-192z" />
<glyph unicode="&#xa3;" horiz-adv-x="1728" d="M192 0v192h192v576h-192v192h192v576h192v192h768v-192h192v-384h-384v384h-384v-576h384v-192h-384v-576h384v192h384v-192h-192v-192h-1152z" />
<glyph unicode="&#xa5;" d="M192 192v192h384v192h-384v192h192v192h-192v768h384v-768h384v768h384v-768h-192v-192h192v-192h-384v-192h384v-192h-384v-192h-384v192h-384z" />
<glyph unicode="&#xa6;" horiz-adv-x="768" d="M192 0v768h384v-768h-384zM192 960v768h384v-768h-384z" />
<glyph unicode="&#xa8;" d="M192 1536v384h384v-384h-384zM960 1536v384h384v-384h-384z" />
<glyph unicode="&#xa9;" horiz-adv-x="1920" d="M192 384v768h192v-768h-192zM384 192v192h192v-192h-192zM384 1152v192h192v-192h-192zM576 0v192h768v-192h-768zM576 576v384h192v-384h-192zM576 1344v192h768v-192h-768zM768 384v192h384v-192h-384zM768 960v192h384v-192h-384zM1344 192v192h192v-192h-192z M1344 1152v192h192v-192h-192zM1536 384v768h192v-768h-192z" />
<glyph unicode="&#xab;" horiz-adv-x="1920" d="M192 768v192h192v192h192v192h384v-192h-192v-192h-192v-192h192v-192h192v-192h-384v192h-192v192h-192zM960 768v192h192v192h192v192h384v-192h-192v-192h-192v-192h192v-192h192v-192h-384v192h-192v192h-192z" />
<glyph unicode="&#xac;" d="M192 768v192h1152v-576h-384v384h-768z" />
<glyph unicode="&#xad;" horiz-adv-x="1344" d="M192 768v192h960v-192h-960z" />
<glyph unicode="&#xae;" horiz-adv-x="1920" d="M192 384v768h192v-768h-192zM384 192v192h192v-192h-192zM384 1152v192h192v-192h-192zM576 0v192h768v-192h-768zM576 384v768h576v-192h-384v-192h384v-192h-384v-192h-192zM576 1344v192h768v-192h-768zM1152 384v192h192v-192h-192zM1152 768v192h192v-192h-192z M1344 192v192h192v-192h-192zM1344 1152v192h192v-192h-192zM1536 384v768h192v-768h-192z" />
<glyph unicode="&#xb0;" horiz-adv-x="1344" d="M192 1152v576h192v192h576v-192h192v-576h-192v-192h-576v192h-192zM576 1152h192v576h-192v-576z" />
<glyph unicode="&#xb1;" d="M192 0v192h1152v-192h-1152zM192 768v192h384v384h384v-384h384v-192h-384v-384h-384v384h-384z" />
<glyph unicode="&#xb4;" horiz-adv-x="960" d="M192 1536v192h192v192h384v-192h-192v-192h-384z" />
<glyph unicode="&#xb5;" d="M192 -384v1728h384v-1152h384v1152h384v-1152h-192v-192h-576v-384h-384z" />
<glyph unicode="&#xb6;" horiz-adv-x="1728" d="M192 960v576h192v192h1152v-1728h-384v1536h-192v-1536h-384v768h-192v192h-192z" />
<glyph unicode="&#xb7;" horiz-adv-x="768" d="M192 768v384h384v-384h-384z" />
<glyph unicode="&#xb8;" horiz-adv-x="960" d="M192 -192h192v192h384v-192h-192v-192h-384v192z" />
<glyph unicode="&#xbb;" horiz-adv-x="1920" d="M192 384v192h192v192h192v192h-192v192h-192v192h384v-192h192v-192h192v-192h-192v-192h-192v-192h-384zM960 384v192h192v192h192v192h-192v192h-192v192h384v-192h192v-192h192v-192h-192v-192h-192v-192h-384z" />
<glyph unicode="&#xbf;" d="M192 -192v576h192v192h192v192h384v-192h-192v-192h-192v-576h384v384h384v-384h-192v-192h-768v192h-192zM576 960v384h384v-384h-384z" />
<glyph unicode="&#xc0;" d="M192 0v1536h192v192h768v-192h192v-1536h-384v576h-384v-576h-384zM384 2112v192h384v-192h192v-192h-384v192h-192zM576 768h384v768h-384v-768z" />
<glyph unicode="&#xc1;" d="M192 0v1536h192v192h768v-192h192v-1536h-384v576h-384v-576h-384zM576 768h384v768h-384v-768zM576 1920v192h192v192h384v-192h-192v-192h-384z" />
<glyph unicode="&#xc2;" d="M192 0v1536h192v192h768v-192h192v-1536h-384v576h-384v-576h-384zM192 1920v192h192v192h192v192h384v-192h192v-192h192v-192h-384v192h-384v-192h-384zM576 768h384v768h-384v-768z" />
<glyph unicode="&#xc3;" d="M192 0v1536h192v192h768v-192h192v-1536h-384v576h-384v-576h-384zM192 1920v192h192v192h576v-192h192v192h384v-192h-192v-192h-576v192h-192v-192h-384zM576 768h384v768h-384v-768z" />
<glyph unicode="&#xc4;" d="M192 0v1536h192v192h768v-192h192v-1536h-384v576h-384v-576h-384zM192 1920v384h384v-384h-384zM576 768h384v768h-384v-768zM960 1920v384h384v-384h-384z" />
<glyph unicode="&#xc5;" d="M192 0v1536h192v192h768v-192h192v-1536h-384v576h-384v-576h-384zM192 2112v192h192v192h768v-192h192v-192h-192v-192h-768v192h-192zM576 768h384v768h-384v-768zM576 2112h384v192h-384v-192z" />
<glyph unicode="&#xc6;" horiz-adv-x="2304" d="M192 0v1536h192v192h1728v-192h-768v-576h576v-192h-576v-576h768v-192h-1152v576h-384v-576h-384zM576 768h384v768h-384v-768z" />
<glyph unicode="&#xc7;" d="M192 192v1344h192v192h768v-192h192v-384h-384v384h-384v-1344h384v384h384v-384h-192v-192h-768v192h-192zM384 -384h192v192h384v-192h-192v-192h-384v192z" />
<glyph unicode="&#xc8;" d="M192 0v1728h1152v-192h-768v-576h576v-192h-576v-576h768v-192h-1152zM384 2112v192h384v-192h192v-192h-384v192h-192z" />
<glyph unicode="&#xc9;" d="M192 0v1728h1152v-192h-768v-576h576v-192h-576v-576h768v-192h-1152zM576 1920v192h192v192h384v-192h-192v-192h-384z" />
<glyph unicode="&#xca;" d="M192 0v1728h1152v-192h-768v-576h576v-192h-576v-576h768v-192h-1152zM192 1920v192h192v192h192v192h384v-192h192v-192h192v-192h-384v192h-384v-192h-384z" />
<glyph unicode="&#xcb;" d="M192 0v1728h1152v-192h-768v-576h576v-192h-576v-576h768v-192h-1152zM192 1920v384h384v-384h-384zM960 1920v384h384v-384h-384z" />
<glyph unicode="&#xcc;" horiz-adv-x="1152" d="M192 0v192h192v1344h-192v192h768v-192h-192v-1344h192v-192h-768zM192 2112v192h384v-192h192v-192h-384v192h-192z" />
<glyph unicode="&#xcd;" horiz-adv-x="1152" d="M192 0v192h192v1344h-192v192h768v-192h-192v-1344h192v-192h-768zM384 1920v192h192v192h384v-192h-192v-192h-384z" />
<glyph unicode="&#xce;" horiz-adv-x="1152" d="M0 1920v192h192v192h192v192h384v-192h192v-192h192v-192h-384v192h-384v-192h-384zM192 0v192h192v1344h-192v192h768v-192h-192v-1344h192v-192h-768z" />
<glyph unicode="&#xcf;" horiz-adv-x="1152" d="M0 1920v384h384v-384h-384zM192 0v192h192v1344h-192v192h768v-192h-192v-1344h192v-192h-768zM768 1920v384h384v-384h-384z" />
<glyph unicode="&#xd0;" d="M0 768v192h192v768h960v-192h192v-1344h-192v-192h-960v768h-192zM576 192h384v1344h-384v-576h192v-192h-192v-576z" />
<glyph unicode="&#xd1;" d="M192 0v1728h384v-384h192v-192h192v576h384v-1728h-384v768h-192v192h-192v-960h-384zM192 1920v192h192v192h576v-192h192v192h384v-192h-192v-192h-576v192h-192v-192h-384z" />
<glyph unicode="&#xd2;" d="M192 192v1344h192v192h768v-192h192v-1344h-192v-192h-768v192h-192zM384 2112v192h384v-192h192v-192h-384v192h-192zM576 192h384v1344h-384v-1344z" />
<glyph unicode="&#xd3;" d="M192 192v1344h192v192h768v-192h192v-1344h-192v-192h-768v192h-192zM576 192h384v1344h-384v-1344zM576 1920v192h192v192h384v-192h-192v-192h-384z" />
<glyph unicode="&#xd4;" d="M192 192v1344h192v192h768v-192h192v-1344h-192v-192h-768v192h-192zM192 1920v192h192v192h192v192h384v-192h192v-192h192v-192h-384v192h-384v-192h-384zM576 192h384v1344h-384v-1344z" />
<glyph unicode="&#xd5;" d="M192 192v1344h192v192h768v-192h192v-1344h-192v-192h-768v192h-192zM192 1920v192h192v192h576v-192h192v192h384v-192h-192v-192h-576v192h-192v-192h-384zM576 192h384v1344h-384v-1344z" />
<glyph unicode="&#xd6;" d="M192 192v1344h192v192h768v-192h192v-1344h-192v-192h-768v192h-192zM192 1920v384h384v-384h-384zM576 192h384v1344h-384v-1344zM960 1920v384h384v-384h-384z" />
<glyph unicode="&#xd7;" d="M192 192v192h192v192h192v192h-192v192h-192v192h384v-192h384v192h384v-192h-192v-192h-192v-192h192v-192h192v-192h-384v192h-384v-192h-384z" />
<glyph unicode="&#xd8;" d="M0 0v384h192v1152h192v192h768v-192h192v192h192v-384h-192v-1152h-192v-192h-768v192h-192v-192h-192zM576 192h384v576h-192v-192h-192v-384zM576 960h192v192h192v384h-384v-576z" />
<glyph unicode="&#xd9;" d="M192 192v1536h384v-1536h384v1536h384v-1536h-192v-192h-768v192h-192zM384 2112v192h384v-192h192v-192h-384v192h-192z" />
<glyph unicode="&#xda;" d="M192 192v1536h384v-1536h384v1536h384v-1536h-192v-192h-768v192h-192zM576 1920v192h192v192h384v-192h-192v-192h-384z" />
<glyph unicode="&#xdb;" d="M192 192v1536h384v-1536h384v1536h384v-1536h-192v-192h-768v192h-192zM192 1920v192h192v192h192v192h384v-192h192v-192h192v-192h-384v192h-384v-192h-384z" />
<glyph unicode="&#xdc;" d="M192 192v1536h384v-1536h384v1536h384v-1536h-192v-192h-768v192h-192zM192 1920v384h384v-384h-384zM960 1920v384h384v-384h-384z" />
<glyph unicode="&#xdd;" d="M192 960v768h384v-768h384v768h384v-768h-192v-192h-192v-768h-384v768h-192v192h-192zM576 1920v192h192v192h384v-192h-192v-192h-384z" />
<glyph unicode="&#xde;" d="M192 0v1728h384v-384h576v-192h192v-576h-192v-192h-576v-384h-384zM576 576h384v576h-384v-576z" />
<glyph unicode="&#xdf;" d="M192 0v1536h192v192h768v-192h192v-576h-192v-192h192v-576h-192v-192h-384v192h192v576h-192v192h192v576h-384v-1536h-384z" />
<glyph unicode="&#xe0;" d="M192 192v384h192v192h576v384h-384v-192h-384v192h192v192h768v-192h192v-1152h-960v192h-192zM384 1728v192h384v-192h192v-192h-384v192h-192zM576 192h384v384h-384v-384z" />
<glyph unicode="&#xe1;" d="M192 192v384h192v192h576v384h-384v-192h-384v192h192v192h768v-192h192v-1152h-960v192h-192zM576 192h384v384h-384v-384zM576 1536v192h192v192h384v-192h-192v-192h-384z" />
<glyph unicode="&#xe2;" d="M192 192v384h192v192h576v384h-384v-192h-384v192h192v192h768v-192h192v-1152h-960v192h-192zM192 1536v192h192v192h192v192h384v-192h192v-192h192v-192h-384v192h-384v-192h-384zM576 192h384v384h-384v-384z" />
<glyph unicode="&#xe3;" d="M192 192v384h192v192h576v384h-384v-192h-384v192h192v192h768v-192h192v-1152h-960v192h-192zM192 1536v192h192v192h576v-192h192v192h384v-192h-192v-192h-576v192h-192v-192h-384zM576 192h384v384h-384v-384z" />
<glyph unicode="&#xe4;" d="M192 192v384h192v192h576v384h-384v-192h-384v192h192v192h768v-192h192v-1152h-960v192h-192zM192 1536v384h384v-384h-384zM576 192h384v384h-384v-384zM960 1536v384h384v-384h-384z" />
<glyph unicode="&#xe5;" d="M192 192v384h192v192h576v384h-384v-192h-384v192h192v192h768v-192h192v-1152h-960v192h-192zM192 1728v192h192v192h768v-192h192v-192h-192v-192h-768v192h-192zM576 192h384v384h-384v-384zM576 1728h384v192h-384v-192z" />
<glyph unicode="&#xe6;" horiz-adv-x="2304" d="M192 192v384h192v192h576v384h-384v-192h-384v192h192v192h1536v-192h192v-576h-768v-384h384v192h384v-192h-192v-192h-1536v192h-192zM576 192h384v384h-384v-384zM1344 768h384v384h-384v-384z" />
<glyph unicode="&#xe7;" d="M192 192v960h192v192h768v-192h192v-384h-384v384h-384v-960h384v384h384v-384h-192v-192h-768v192h-192zM384 -384h192v192h384v-192h-192v-192h-384v192z" />
<glyph unicode="&#xe8;" d="M192 192v960h192v192h768v-192h192v-576h-768v-384h384v192h384v-192h-192v-192h-768v192h-192zM384 1728v192h384v-192h192v-192h-384v192h-192zM576 768h384v384h-384v-384z" />
<glyph unicode="&#xe9;" d="M192 192v960h192v192h768v-192h192v-576h-768v-384h384v192h384v-192h-192v-192h-768v192h-192zM576 768h384v384h-384v-384zM576 1536v192h192v192h384v-192h-192v-192h-384z" />
<glyph unicode="&#xea;" d="M192 192v960h192v192h768v-192h192v-576h-768v-384h384v192h384v-192h-192v-192h-768v192h-192zM192 1536v192h192v192h192v192h384v-192h192v-192h192v-192h-384v192h-384v-192h-384zM576 768h384v384h-384v-384z" />
<glyph unicode="&#xeb;" d="M192 192v960h192v192h768v-192h192v-576h-768v-384h384v192h384v-192h-192v-192h-768v192h-192zM192 1536v384h384v-384h-384zM576 768h384v384h-384v-384zM960 1536v384h384v-384h-384z" />
<glyph unicode="&#xec;" horiz-adv-x="1152" d="M192 0v192h192v960h-192v192h576v-1152h192v-192h-768zM192 1728v192h384v-192h192v-192h-384v192h-192z" />
<glyph unicode="&#xed;" horiz-adv-x="1152" d="M192 0v192h192v960h-192v192h576v-1152h192v-192h-768zM384 1536v192h192v192h384v-192h-192v-192h-384z" />
<glyph unicode="&#xee;" horiz-adv-x="1152" d="M0 1536v192h192v192h192v192h384v-192h192v-192h192v-192h-384v192h-384v-192h-384zM192 0v192h192v960h-192v192h576v-1152h192v-192h-768z" />
<glyph unicode="&#xef;" horiz-adv-x="1152" d="M0 1536v384h384v-384h-384zM192 0v192h192v960h-192v192h576v-1152h192v-192h-768zM768 1536v384h384v-384h-384z" />
<glyph unicode="&#xf0;" d="M192 192v768h192v192h576v192h-384v192h384v192h384v-192h192v-192h-192v-1344h-960v192h-192zM576 192h384v768h-384v-768z" />
<glyph unicode="&#xf1;" d="M192 0v1344h960v-192h192v-1152h-384v1152h-384v-1152h-384zM192 1536v192h192v192h576v-192h192v192h384v-192h-192v-192h-576v192h-192v-192h-384z" />
<glyph unicode="&#xf2;" d="M192 192v960h192v192h768v-192h192v-960h-192v-192h-768v192h-192zM384 1728v192h384v-192h192v-192h-384v192h-192zM576 192h384v960h-384v-960z" />
<glyph unicode="&#xf3;" d="M192 192v960h192v192h768v-192h192v-960h-192v-192h-768v192h-192zM576 192h384v960h-384v-960zM576 1536v192h192v192h384v-192h-192v-192h-384z" />
<glyph unicode="&#xf4;" d="M192 192v960h192v192h768v-192h192v-960h-192v-192h-768v192h-192zM192 1536v192h192v192h192v192h384v-192h192v-192h192v-192h-384v192h-384v-192h-384zM576 192h384v960h-384v-960z" />
<glyph unicode="&#xf5;" d="M192 192v960h192v192h768v-192h192v-960h-192v-192h-768v192h-192zM192 1536v192h192v192h576v-192h192v192h384v-192h-192v-192h-576v192h-192v-192h-384zM576 192h384v960h-384v-960z" />
<glyph unicode="&#xf6;" d="M192 192v960h192v192h768v-192h192v-960h-192v-192h-768v192h-192zM192 1536v384h384v-384h-384zM576 192h384v960h-384v-960zM960 1536v384h384v-384h-384z" />
<glyph unicode="&#xf7;" d="M192 768v192h1152v-192h-1152zM576 192v384h384v-384h-384zM576 1152v384h384v-384h-384z" />
<glyph unicode="&#xf8;" d="M0 -192v384h192v960h192v192h960v192h192v-384h-192v-960h-192v-192h-960v-192h-192zM576 192h384v384h-192v-192h-192v-192zM576 768h192v192h192v192h-384v-384z" />
<glyph unicode="&#xf9;" d="M192 192v1152h384v-1152h384v1152h384v-1344h-960v192h-192zM384 1728v192h384v-192h192v-192h-384v192h-192z" />
<glyph unicode="&#xfa;" d="M192 192v1152h384v-1152h384v1152h384v-1344h-960v192h-192zM576 1536v192h192v192h384v-192h-192v-192h-384z" />
<glyph unicode="&#xfb;" d="M192 192v1152h384v-1152h384v1152h384v-1344h-960v192h-192zM192 1536v192h192v192h192v192h384v-192h192v-192h192v-192h-384v192h-384v-192h-384z" />
<glyph unicode="&#xfc;" d="M192 192v1152h384v-1152h384v1152h384v-1344h-960v192h-192zM192 1536v384h384v-384h-384zM960 1536v384h384v-384h-384z" />
<glyph unicode="&#xfd;" d="M192 0h384v-192h384v384h-576v192h-192v960h384v-960h384v960h384v-1536h-192v-192h-768v192h-192v192zM576 1536v192h192v192h384v-192h-192v-192h-384z" />
<glyph unicode="&#xfe;" d="M192 -384v2112h384v-384h576v-192h192v-960h-192v-192h-576v-384h-384zM576 192h384v960h-384v-960z" />
<glyph unicode="&#xff;" d="M192 0h384v-192h384v384h-576v192h-192v960h384v-960h384v960h384v-1536h-192v-192h-768v192h-192v192zM192 1536v384h384v-384h-384zM960 1536v384h384v-384h-384z" />
<glyph unicode="&#x152;" horiz-adv-x="2304" d="M192 192v1344h192v192h1728v-192h-768v-576h576v-192h-576v-576h768v-192h-1728v192h-192zM576 192h384v1344h-384v-1344z" />
<glyph unicode="&#x153;" horiz-adv-x="2304" d="M192 192v960h192v192h1536v-192h192v-576h-768v-384h384v192h384v-192h-192v-192h-1536v192h-192zM576 192h384v960h-384v-960zM1344 768h384v384h-384v-384z" />
<glyph unicode="&#x178;" d="M192 960v768h384v-768h384v768h384v-768h-192v-192h-192v-768h-384v768h-192v192h-192zM192 1920v384h384v-384h-384zM960 1920v384h384v-384h-384z" />
<glyph unicode="&#x2000;" horiz-adv-x="1248" />
<glyph unicode="&#x2001;" horiz-adv-x="2496" />
<glyph unicode="&#x2002;" horiz-adv-x="1248" />
<glyph unicode="&#x2003;" horiz-adv-x="2496" />
<glyph unicode="&#x2004;" horiz-adv-x="832" />
<glyph unicode="&#x2005;" horiz-adv-x="624" />
<glyph unicode="&#x2006;" horiz-adv-x="416" />
<glyph unicode="&#x2007;" horiz-adv-x="416" />
<glyph unicode="&#x2008;" horiz-adv-x="312" />
<glyph unicode="&#x2009;" horiz-adv-x="499" />
<glyph unicode="&#x200a;" horiz-adv-x="138" />
<glyph unicode="&#x2010;" horiz-adv-x="1344" d="M192 768v192h960v-192h-960z" />
<glyph unicode="&#x2011;" horiz-adv-x="1344" d="M192 768v192h960v-192h-960z" />
<glyph unicode="&#x2012;" horiz-adv-x="1344" d="M192 768v192h960v-192h-960z" />
<glyph unicode="&#x2013;" horiz-adv-x="1408" d="M192 768v192h1024v-192h-1024z" />
<glyph unicode="&#x2014;" d="M192 768v192h1152v-192h-1152z" />
<glyph unicode="&#x2018;" horiz-adv-x="768" d="M192 960v576h192v-192h192v-384h-384zM384 1536v192h192v-192h-192z" />
<glyph unicode="&#x2019;" horiz-adv-x="768" d="M192 960v192h192v-192h-192zM192 1344v384h384v-576h-192v192h-192z" />
<glyph unicode="&#x201a;" horiz-adv-x="768" d="M192 0v384h384v-576h-192v192h-192zM192 -192h192v-192h-192v192z" />
<glyph unicode="&#x201c;" horiz-adv-x="1344" d="M192 960v576h192v-192h192v-384h-384zM384 1536v192h192v-192h-192zM768 960v576h192v-192h192v-384h-384zM960 1536v192h192v-192h-192z" />
<glyph unicode="&#x201d;" horiz-adv-x="1344" d="M192 960v192h192v-192h-192zM192 1344v384h384v-576h-192v192h-192zM768 960v192h192v-192h-192zM768 1344v384h384v-576h-192v192h-192z" />
<glyph unicode="&#x201e;" horiz-adv-x="1344" d="M192 0v384h384v-576h-192v192h-192zM192 -192h192v-192h-192v192zM768 0v384h384v-576h-192v192h-192zM768 -192h192v-192h-192v192z" />
<glyph unicode="&#x2022;" horiz-adv-x="768" d="M192 768v384h384v-384h-384z" />
<glyph unicode="&#x2026;" horiz-adv-x="2304" d="M192 0v384h384v-384h-384zM960 0v384h384v-384h-384zM1728 0v384h384v-384h-384z" />
<glyph unicode="&#x202f;" horiz-adv-x="499" />
<glyph unicode="&#x2039;" horiz-adv-x="1152" d="M192 768v192h192v192h192v192h384v-192h-192v-192h-192v-192h192v-192h192v-192h-384v192h-192v192h-192z" />
<glyph unicode="&#x203a;" horiz-adv-x="1152" d="M192 384v192h192v192h192v192h-192v192h-192v192h384v-192h192v-192h192v-192h-192v-192h-192v-192h-384z" />
<glyph unicode="&#x205f;" horiz-adv-x="624" />
<glyph unicode="&#x20ac;" horiz-adv-x="1728" d="M192 576v192h192v192h-192v192h192v384h192v192h768v-192h192v-384h-384v384h-384v-384h384v-192h-384v-192h384v-192h-384v-384h384v384h384v-384h-192v-192h-768v192h-192v384h-192z" />
<glyph unicode="&#x2122;" horiz-adv-x="2112" d="M192 1536v192h576v-192h-192v-576h-192v576h-192zM960 960v768h192v-192h192v-192h-192v-384h-192zM1344 1152v192h192v-192h-192zM1536 1344v192h192v192h192v-768h-192v384h-192z" />
<glyph unicode="&#x25fc;" horiz-adv-x="1345" d="M0 0v1345h1345v-1345h-1345z" />
</font>
</defs>
</svg>
