<?xml version="1.0" encoding="UTF-8" standalone="no"?>
<svg
   xmlns:dc="http://purl.org/dc/elements/1.1/"
   xmlns:cc="http://creativecommons.org/ns#"
   xmlns:rdf="http://www.w3.org/1999/02/22-rdf-syntax-ns#"
   xmlns:svg="http://www.w3.org/2000/svg"
   xmlns="http://www.w3.org/2000/svg"
   xmlns:sodipodi="http://sodipodi.sourceforge.net/DTD/sodipodi-0.dtd"
   xmlns:inkscape="http://www.inkscape.org/namespaces/inkscape"
   version="1.1"
   id="svg2"
   xml:space="preserve"
   width="566.93335"
   height="159.77333"
   viewBox="0 0 566.93335 159.77333"
   sodipodi:docname="vibe-logo-white.eps"><metadata
     id="metadata8"><rdf:RDF><cc:Work
         rdf:about=""><dc:format>image/svg+xml</dc:format><dc:type
           rdf:resource="http://purl.org/dc/dcmitype/StillImage" /></cc:Work></rdf:RDF></metadata><defs
     id="defs6" /><sodipodi:namedview
     pagecolor="#ffffff"
     bordercolor="#666666"
     borderopacity="1"
     objecttolerance="10"
     gridtolerance="10"
     guidetolerance="10"
     inkscape:pageopacity="0"
     inkscape:pageshadow="2"
     inkscape:window-width="640"
     inkscape:window-height="480"
     id="namedview4" /><g
     id="g10"
     inkscape:groupmode="layer"
     inkscape:label="ink_ext_XXXXXX"
     transform="matrix(1.3333333,0,0,-1.3333333,0,159.77333)"><g
       id="g12"
       transform="scale(0.1)"><path
         d="m 1280.33,0 h 277.31 V 1198.32 H 1280.33 V 0"
         style="fill:#ffffff;fill-opacity:1;fill-rule:nonzero;stroke:none"
         id="path14" /><path
         d="M 446.805,0 H 724.117 L 1170.93,1198.32 H 862.797 L 629.973,525.547 C 612.855,475.906 599.156,424.539 585.461,369.773 571.766,424.539 558.07,475.906 540.953,525.547 L 308.148,1198.32 H 0.00390625 L 446.805,0"
         style="fill:#ffffff;fill-opacity:1;fill-rule:nonzero;stroke:none"
         id="path16" /><path
         d="m 2242.36,0 h 530.67 c 234.53,0 431.4,133.52 431.4,359.492 0,162.637 -102.72,251.656 -205.43,294.438 89.02,54.785 155.79,123.265 155.79,249.941 0,184.869 -152.38,294.449 -398.88,294.449 h -513.55 z m 277.31,746.387 v 236.222 h 231.11 c 94.15,0 147.23,-44.507 147.23,-116.41 0,-71.883 -53.08,-119.812 -147.23,-119.812 z m 0,-517.004 v 291.035 h 244.81 c 121.54,0 174.6,-59.91 174.6,-147.227 0,-87.304 -54.77,-143.808 -174.6,-143.808 h -244.81"
         style="fill:#ffffff;fill-opacity:1;fill-rule:nonzero;stroke:none"
         id="path18" /><path
         d="m 1768.19,0 h 263.62 V 263.613 H 1768.19 V 0"
         style="fill:#ffffff;fill-opacity:1;fill-rule:nonzero;stroke:none"
         id="path20" /><path
         d="m 3372.07,0 h 879.9 V 243.086 H 3649.39 V 501.57 h 549.52 v 236.246 h -549.52 v 217.403 h 597.45 V 1198.32 H 3372.07 V 0"
         style="fill:#ffffff;fill-opacity:1;fill-rule:nonzero;stroke:none"
         id="path22" /></g></g></svg>
